<?xml version="1.0" encoding="UTF-8" standalone="no"?>
<svg xmlns="http://www.w3.org/2000/svg" xmlns:xlink="http://www.w3.org/1999/xlink" fill="#000000" height="536.7" preserveAspectRatio="xMidYMid meet" version="1" viewBox="-8.4 -19.3 507.1 536.7" width="507.1" zoomAndPan="magnify"><g id="change1_1"><path d="M498.7,251c-0.3-42.8-13-83.2-34.6-117.9c-28.6-56.8-78.9-101.9-141.9-122C226.6-19.3,120.1,14.1,57.5,92 c-26.4,32.8-43.1,71.6-49.9,111.9c-16,62.2-7,130.3,28.5,186.3c54,85.2,158.9,127.2,256.9,103.2c33-8.1,63-23,88.8-43.1 C450.9,408.7,498,334.7,498.7,251z M485.2,244.5c-0.3,45.7-13.8,89.5-37.3,126.8c17.7-33.5,27.8-71.4,28.1-110.7 c-0.8-101.7-67-194-164.4-225.1c-22.9-7.3-46.5-10.9-70-11c23.1-1.1,46.5,1,69.3,6.5C373.2,45.8,426.3,84.8,459,136.8 C475.5,169.6,484.9,206.3,485.2,244.5z M319.5,470.6c-22.2,6.9-45.1,10.3-67.8,10.5c-71-1.4-140.7-32.5-186.6-88.7 C4.3,318-2.5,210.8,50.4,130.2C76.9,90,115,60.3,158.2,42.8c42.7-15.3,90-18.3,135.5-6.8C397.4,62.3,470,157.5,470.8,263.9 c-0.4,51-17.4,99.7-46.8,139.1C396.5,433.9,360.8,457.8,319.5,470.6z M402.5,428c-6.8,6.9-14.1,13.4-21.8,19.4 c-12.8,7.6-26.3,14.1-40.6,19.2C363,456.9,384,443.8,402.5,428z M12.5,201.2c5.7-22.1,14.7-43.6,27.1-63.4 c13.4-21.6,30.2-40.4,49.4-56c-9.6,8.3-18.5,17.4-26.7,27.3c-34.8,41.9-52.7,94-52.5,146.3C8.6,237.3,9.6,219.1,12.5,201.2z M44.5,115.8C98.2,29.4,204-13,302.6,11.3c46.9,11.5,87.7,36.9,118.8,71c-26.1-23.5-57.6-41.6-92.3-52.1 C273,13.3,212.6,17,159.4,38.6C118.3,53.3,81,78.9,52.8,113.7c-12.4,15.3-22.7,32-30.7,49.5C27.7,146.8,35.1,130.9,44.5,115.8z M307.2,485.6C215.7,513.3,114.2,481,55,406c-31.8-40.4-48.7-90-49.9-140c3.2,37.5,15.1,74.4,35.8,107.2 c45.2,71.5,125.6,113.3,208.3,112.4c20.3,0.3,40.8-1.8,60.9-6.4c17.2-4,33.7-9.8,49.3-17.1C343.4,472,325.9,479.9,307.2,485.6z M399.7,434.8c10.1-9.6,19.4-20.1,27.8-31.3c38.9-43.9,62.3-101.4,62.8-162.3c-0.1-13.4-1.3-26.6-3.6-39.6c4.3,17,6.7,34.6,6.8,52.8 C493,327.4,456.3,393.2,399.7,434.8z" fill="#e61f93"/></g></svg>