<?xml version="1.0" encoding="UTF-8"?>
<svg xmlns="http://www.w3.org/2000/svg" xmlns:xlink="http://www.w3.org/1999/xlink" height="44.1" preserveAspectRatio="xMidYMid meet" version="1.0" viewBox="-0.0 0.0 44.0 44.1" width="44.0" zoomAndPan="magnify"><g id="change1_1"><path d="M 32.644531 9.355469 C 33.222656 9.355469 33.796875 9.417969 34.359375 9.542969 C 34.878906 9.652344 35.210938 10.160156 35.097656 10.679688 C 35.042969 10.929688 34.890625 11.152344 34.671875 11.289062 C 34.121094 11.632812 33.617188 12.042969 33.167969 12.515625 C 27.011719 19.339844 22.175781 27.253906 18.914062 35.847656 C 18.714844 36.371094 18.210938 36.71875 17.652344 36.71875 L 14.621094 36.71875 C 14.152344 36.71875 13.714844 36.472656 13.46875 36.070312 C 11.992188 33.636719 10.292969 31.34375 8.398438 29.21875 C 7.90625 28.660156 7.957031 27.804688 8.511719 27.3125 C 8.570312 27.261719 8.628906 27.214844 8.695312 27.175781 C 9.46875 26.691406 10.21875 26.171875 10.945312 25.621094 C 11.539062 25.171875 12.386719 25.285156 12.835938 25.878906 C 12.839844 25.882812 12.84375 25.886719 12.84375 25.890625 C 13.5625 26.847656 14.496094 27.621094 15.574219 28.140625 C 15.910156 28.304688 16.3125 28.164062 16.476562 27.828125 C 16.476562 27.828125 16.476562 27.828125 16.476562 27.824219 C 19.09375 22.355469 22.328125 17.207031 26.117188 12.472656 C 27.703125 10.492188 30.105469 9.34375 32.644531 9.355469 Z M 21.398438 0.0078125 C 9.472656 0.332031 -0.0234375 10.109375 0 22.039062 C -0.00390625 34.191406 9.839844 44.042969 21.992188 44.050781 C 34.140625 44.054688 43.996094 34.210938 44 22.058594 C 44 22.050781 44 22.046875 44 22.039062 C 44.023438 9.890625 34.191406 0.0234375 22.042969 0 C 21.828125 0 21.613281 0.00390625 21.398438 0.0078125" fill="#100f0d"/></g></svg>