<?xml version="1.0" encoding="UTF-8" standalone="no"?>
<svg xmlns="http://www.w3.org/2000/svg" xmlns:xlink="http://www.w3.org/1999/xlink" fill="#e61f93" height="1451.7" preserveAspectRatio="xMidYMid meet" version="1" viewBox="350.2 287.3 1299.7 1451.7" width="1299.7" zoomAndPan="magnify"><g id="change1_1"><path d="M 1599.851562 984.609375 L 1115.390625 984.609375 L 1115.390625 766.28125 L 1599.851562 766.28125 Z M 1510.746094 1689 L 1115.390625 1689 L 1115.390625 1034.609375 L 1510.746094 1034.609375 Z M 934.613281 1689 L 934.613281 1034.609375 L 1065.386719 1034.609375 L 1065.386719 1689 Z M 489.253906 1034.609375 L 884.613281 1034.609375 L 884.613281 1689 L 489.253906 1689 Z M 400.152344 766.28125 L 884.613281 766.28125 L 884.613281 984.609375 L 400.152344 984.609375 Z M 554.285156 476.78125 C 549.085938 444.195312 586.695312 406.222656 614.15625 378.503906 C 639.863281 352.550781 662.449219 340.015625 685.238281 339.058594 C 713.652344 337.871094 746.273438 355.34375 782.28125 391.019531 C 821.363281 429.726562 880.578125 502.417969 924.761719 577.546875 C 946.042969 613.734375 960.949219 645.992188 967.859375 670.832031 C 970.753906 681.234375 972.027344 689.578125 972.234375 696.019531 L 621.433594 541.683594 C 593.042969 527.046875 558.628906 504.015625 554.285156 476.78125 Z M 1029.523438 670.832031 C 1036.429688 645.992188 1051.339844 613.734375 1072.625 577.546875 C 1116.800781 502.417969 1176.019531 429.726562 1215.097656 391.019531 C 1251.105469 355.34375 1283.773438 337.882812 1312.144531 339.058594 C 1334.9375 340.015625 1357.527344 352.550781 1383.21875 378.503906 C 1410.683594 406.222656 1448.300781 444.195312 1443.101562 476.78125 C 1438.75 504.015625 1404.335938 527.046875 1375.957031 541.683594 L 1025.152344 696.019531 C 1025.363281 689.578125 1026.632812 681.226562 1029.523438 670.832031 Z M 1065.386719 984.609375 L 934.613281 984.609375 L 934.613281 766.28125 L 1065.386719 766.28125 Z M 1624.847656 716.289062 L 1103.246094 716.289062 L 1396.773438 587.140625 C 1397.222656 586.941406 1397.675781 586.730469 1398.117188 586.511719 C 1455.351562 557.164062 1486.222656 523.855469 1492.476562 484.660156 C 1501.667969 427.027344 1453.746094 378.640625 1418.753906 343.3125 C 1384.101562 308.335938 1349.910156 290.597656 1314.246094 289.09375 C 1270.820312 287.289062 1226.867188 308.984375 1179.90625 355.492188 C 1130.1875 404.75 1069.746094 483.800781 1029.523438 552.191406 C 1017.171875 573.1875 1006.890625 592.816406 998.691406 610.949219 C 990.492188 592.816406 980.207031 573.1875 967.859375 552.191406 C 927.632812 483.800781 867.195312 404.75 817.46875 355.492188 C 770.523438 308.996094 726.574219 287.277344 683.140625 289.09375 C 647.46875 290.597656 613.28125 308.335938 578.632812 343.3125 C 543.640625 378.640625 495.710938 427.027344 504.910156 484.660156 C 511.164062 523.855469 542.027344 557.164062 599.269531 586.511719 C 599.710938 586.730469 600.15625 586.941406 600.605469 587.140625 L 894.140625 716.289062 L 375.148438 716.289062 C 361.34375 716.289062 350.152344 727.480469 350.152344 741.285156 L 350.152344 1009.609375 C 350.152344 1023.417969 361.34375 1034.609375 375.148438 1034.609375 L 439.253906 1034.609375 L 439.253906 1714 C 439.253906 1727.808594 450.449219 1739 464.257812 1739 L 1535.746094 1739 C 1549.550781 1739 1560.742188 1727.808594 1560.742188 1714 L 1560.742188 1034.609375 L 1624.847656 1034.609375 C 1638.664062 1034.609375 1649.855469 1023.417969 1649.855469 1009.609375 L 1649.855469 741.285156 C 1649.855469 727.480469 1638.664062 716.289062 1624.847656 716.289062" fill="inherit"/></g></svg>